<?xml version="1.0" encoding="utf-8"?>
<!-- Generator: Adobe Illustrator 27.4.1, SVG Export Plug-In . SVG Version: 6.00 Build 0)  -->
<svg version="1.1" id="Layer_1" xmlns="http://www.w3.org/2000/svg" xmlns:xlink="http://www.w3.org/1999/xlink" x="0px" y="0px"
	 viewBox="0 0 300 300" style="enable-background:new 0 0 300 300;" xml:space="preserve">
<style type="text/css">
	.st0{fill:none;stroke:#baa279;stroke-width:20;stroke-linecap:round;stroke-linejoin:round;}
	.st1{fill:#baa279;stroke:#baa279;stroke-miterlimit:10;}
	.st2{fill:#baa279;stroke:#baa279;stroke-miterlimit:10;}
</style>
<g>
	<g id="Layer_1-2">
		<line class="st0" x1="160" y1="120" x2="260" y2="120"/>
		<line class="st0" x1="160" y1="150" x2="260" y2="150"/>
		<line class="st0" x1="160" y1="180" x2="260" y2="180"/>
		<rect x="10" y="60" class="st0" width="280" height="180"/>
		<path class="st1" d="M97.7,132.7c-9.8,9.8-25.6,9.8-35.4,0l0,0l35.4-35.4C107.4,107.1,107.4,122.9,97.7,132.7L97.7,132.7z"/>
		<path class="st2" d="M79.6,90h0.8C94,90,105,101,105,114.6v0.8C105,129,94,140,80.4,140h-0.8C66,140,55,129,55,115.4v-0.8
			C55,101,66,90,79.6,90z"/>
		<path class="st0" d="M40,200v-16c0-13.3,10.7-24,24-24h32c13.3,0,24,10.7,24,24v16"/>
		<path class="st2" d="M80,180L80,180c11,0,20,9,20,20v10l0,0H60l0,0v-10C60,189,69,180,80,180z"/>
	</g>
</g>
</svg>
