<svg height="24px" version="1.1" viewBox="0 0 24 24" width="24px" xmlns="http://www.w3.org/2000/svg" xmlns:xlink="http://www.w3.org/1999/xlink"><title></title><desc></desc><defs></defs><g fill="none" fill-rule="evenodd" id="miu" stroke="none" stroke-width="1"><g id="Artboard-1" transform="translate(-322.000000, -263.000000)"><g id="slice" transform="translate(215.000000, 119.000000)"></g><path d="M324.5,284.497538 C324.5,285.051183 324.94892,285.5 325.507484,285.5 L338.492516,285.5 C339.048934,285.5 339.5,285.060542 339.5,284.497538 L339.5,264.502462 C339.5,263.948817 339.05108,263.5 338.492516,263.5 L325.507484,263.5 C324.951066,263.5 324.5,263.939458 324.5,264.502462 L324.5,284.497538 Z M340.5,284.5 L342.501043,284.5 C343.052752,284.5 343.5,284.052511 343.5,283.501498 L343.5,271.5 L344.5,271.5 C345.052285,271.5 345.5,271.062119 345.5,270.497071 L345.5,265.502929 C345.5,264.949027 345.056283,264.5 344.500193,264.5 L340.5,264.5 L340.5,284.5 Z" fill="#baa279" id="editor-folder-glyph" transform="translate(335.000000, 274.500000) rotate(-90.000000) translate(-335.000000, -274.500000) "></path></g></g></svg>